<?xml version="1.0" encoding="UTF-8"?>
<!DOCTYPE svg PUBLIC "-//W3C//DTD SVG 1.1//EN" "http://www.w3.org/Graphics/SVG/1.1/DTD/svg11.dtd">
<svg version="1.1" xmlns="http://www.w3.org/2000/svg" xmlns:xlink="http://www.w3.org/1999/xlink" x="0" y="0" width="258.666" height="245.667" viewBox="0, 0, 258.666, 245.667">
  <defs>
    <linearGradient id="Gradient_1" gradientUnits="userSpaceOnUse" x1="225.627" y1="404.121" x2="225.627" y2="192.454">
      <stop offset="0.02" stop-color="#1D3884"/>
      <stop offset="1" stop-color="#FFFFFF"/>
    </linearGradient>
    <linearGradient id="Gradient_2" gradientUnits="userSpaceOnUse" x1="139.88" y1="377.62" x2="313.76" y2="226.54">
      <stop offset="0.026" stop-color="#D90000"/>
      <stop offset="1" stop-color="#FFFFFF" stop-opacity="0.798"/>
    </linearGradient>
  </defs>
  <g id="Layer_1" transform="translate(-96.294, -175.454)">
    <g>
      <path d="M151.651,192.454 L299.603,192.454 C320.787,192.454 337.96,208.634 337.96,228.592 L337.96,367.982 C337.96,387.941 320.787,404.121 299.603,404.121 L151.651,404.121 C130.467,404.121 113.294,387.941 113.294,367.982 L113.294,228.592 C113.294,208.634 130.467,192.454 151.651,192.454 z" fill="url(#Gradient_1)"/>
      <path d="M151.651,192.454 L299.603,192.454 C320.787,192.454 337.96,208.634 337.96,228.592 L337.96,367.982 C337.96,387.941 320.787,404.121 299.603,404.121 L151.651,404.121 C130.467,404.121 113.294,387.941 113.294,367.982 L113.294,228.592 C113.294,208.634 130.467,192.454 151.651,192.454 z" fill-opacity="0" stroke="#FFFFFF" stroke-width="9"/>
    </g>
    <g>
      <path d="M144.25,337.917 C144.25,337.917 163.5,314.5 210.833,301.833 C232.522,296.029 309.5,281.167 309.5,281.167 C309.5,281.167 284.667,318.5 272.167,331.833 C259.667,345.167 253,328 218.5,337.5 C184,347 171.833,370.167 171.833,370.167 C171.833,370.167 151.833,373.833 133.833,382.833 C115.833,391.833 109.04,410.241 107.833,408.833 C105.629,406.262 98.75,380.75 110.75,364.75 C122.75,348.75 129,349.583 134.25,332.25 C139.5,314.917 135.5,290.5 177.5,258.5 C219.5,226.5 347.583,195.25 349.583,195.25 C351.583,195.25 337.66,255.248 309.75,259.75 C299.417,261.417 263.667,267 250.833,270.5 C238,274 222.5,275.5 192.167,293.167 C171.306,305.316 143.25,328.25 141.917,341.25 C141.583,346.917 155.5,352.167 164.167,351.833 C172.833,351.5 175.25,343.25 180.583,337.583 C185.917,331.917 189.917,322.583 189.917,322.583 C189.917,322.583 184.75,320.417 173.583,324.583 C162.417,328.75 144.854,335.787 142.25,340.417 C139.25,345.75 157.5,353.167 161.5,347.167 C165.5,341.167 172.833,332.5 171.833,328.5" fill="url(#Gradient_2)"/>
      <path d="M144.25,337.917 C144.25,337.917 163.5,314.5 210.833,301.833 C232.522,296.029 309.5,281.167 309.5,281.167 C309.5,281.167 284.667,318.5 272.167,331.833 C259.667,345.167 253,328 218.5,337.5 C184,347 171.833,370.167 171.833,370.167 C171.833,370.167 151.833,373.833 133.833,382.833 C115.833,391.833 109.04,410.241 107.833,408.833 C105.629,406.262 98.75,380.75 110.75,364.75 C122.75,348.75 129,349.583 134.25,332.25 C139.5,314.917 135.5,290.5 177.5,258.5 C219.5,226.5 347.583,195.25 349.583,195.25 C351.583,195.25 337.66,255.248 309.75,259.75 C299.417,261.417 263.667,267 250.833,270.5 C238,274 222.5,275.5 192.167,293.167 C171.306,305.316 143.25,328.25 141.917,341.25 C141.583,346.917 155.5,352.167 164.167,351.833 C172.833,351.5 175.25,343.25 180.583,337.583 C185.917,331.917 189.917,322.583 189.917,322.583 C189.917,322.583 184.75,320.417 173.583,324.583 C162.417,328.75 144.854,335.787 142.25,340.417 C139.25,345.75 157.5,353.167 161.5,347.167 C165.5,341.167 172.833,332.5 171.833,328.5" fill-opacity="0" stroke="#000000" stroke-width="6" stroke-linecap="square" stroke-linejoin="round"/>
    </g>
  </g>
</svg>
